Raven Alexis Nymphomaniac (2010) [BluRay 720px264]
 
http://www.adultdvdfree.com/catalog/product_info.php?products_id=67523 
http://www.adultdvdnow.com/dvd/Raven_Alexis_Nymphomaniac_90843.html 
http://e.orgazmik.com/film/detail/5549088.htm?RID=ADT

Studio  Digital Playground 
Release Date  Nov 10, 2010 
Category  HD - Shot In High Def, Feature, Blu-ray 
Director  Robby D 
Starring  Tori Black, Phoenix Marie, Alanah Rae, Krissy Lynn, Breanne Benson, Raven Alexis, Jim F, Tommy Gunn, Manuel Ferrara, Mick Blue, Scott Nails, Mr Pete 

What happens when you mix a room full of beautiful people who are all complete nymphomaniacs trying to hold themselves back? Watch and find out as Raven Alexis decides to get help for her long time problem of wanting rough hot sex constantly. ...    Full DescriptionAnd the more she tries to fix, the more she realizes it might not be a problem after all

===========================================
General
Complete name: jiggly-nymphomaniac-720p.mkv
Format: Matroska
File size: 4.37 GiB
Duration: 1h 25mn
Overall bit rate: 7 286 Kbps
Encoded date: 12/03/2010 17:32:55 UTC
Writing application: mkvmerge v4.4.0 ('Die Wiederkehr') built on October 31, 2010 21:52:48
Writing library: libebml libmatroska v1.0.0 + v1.0.0

Video
ID: 1
Format: AVC
Format / Info: Advanced Video Codec
Format profile: High@L4.1
Format settings, CABAC: Yes
Format settings, reframe: 5 frames
Format settings, GOP: M = 4, N = 16
Muxing mode: Container profile = Unknown@4.1
Codec ID: V_MPEG4/ISO/AVC
Duration: 1h 25mn
Bit rate: 6 645 Kbps
Width: 1 280 pixels
Height: 720 pixels
Display aspect ratio: 16:9
Frame rate: 23.976 fps
Color space: YUV
Subsampling Chroma: 4:2:0
Bit depth: 8 bits
Scan type: Progressive
Bits / (Pixel * Frame): 0.301
Stream size: 3.90 GiB (89%)
Writing library: x264 core 110 e89c4cf r1804
Encoding settings: cabac = 1 / ref = 5 / Deblock = 1:0:0 / analyze = 0x3: 0x133 / me = umh / submenu = 7 / psy = 1 / psy_rd = 1.00:0.00 / mixed_ref = 1 / me_range = 16 / chroma_me = 1 / trellis = 1 / 8x8dct = 1 / CQM = 0 / deadzone = 21.11 / fast_pskip = 0 / chroma_qp_offset =- 2 / threads = 12 / sliced_threads = 0 / nr = 0 / decimate = 1 / interlaced = 0 / constrained_intra = 0 / bframe = 3 / b_pyramid = 2 / b_adapt = 1 / b_bias = 0 / direct = 1 / weightb = 1 / open_gop = 0 / weightp = 2 / keyint = 250 / keyint_min = 23 / scenecut = 40 / intra_refresh = 0 / rc_lookahead = 40 / rc = 2pass / mbtree = 1 / bitrate = 6645 / ratetol = 1.0 / qcomp = 0.60 / qpmin = 10 / qpmax = 51 / qpstep = 4 / cplxblur = 20.0 / qblur = 0.5 / ip_ratio = 1.40 / aq = 1:1.00
Language: Inglés

Audio
ID: 2
Format: AC-3
Format / Info: Audio Coding 3
Mode extension: CM (complete main)
Codec ID: A_AC3
Duration: 1h 25mn
Bit rate mode: Constant
Bit rate: 640 Kbps
Channel (s): 6 channels
Channel positions: Front: LCR, Side: LR, LFE
Sampling rate: 48.0 KHz
Bit depth: 16 bits
Stream size: 393 MiB (9%)
Language: Inglés
===============================================================================